<svg width="25" height="25" viewBox="0 0 21 21" fill="none" xmlns="http://www.w3.org/2000/svg">
<path d="M19.875 5.02735C19.1717 5.33296 18.4275 5.5343 17.666 5.62501C18.4663 5.1564 19.0681 4.41195 19.3586 3.53126C18.602 3.97368 17.7756 4.2841 16.9148 4.44923C16.5524 4.06935 16.1165 3.76716 15.6336 3.561C15.1507 3.35484 14.6309 3.24904 14.1059 3.25001C11.9801 3.25001 10.2598 4.94532 10.2598 7.03516C10.2583 7.32585 10.2916 7.61568 10.359 7.89844C8.83464 7.82698 7.342 7.43813 5.97656 6.75675C4.61111 6.07537 3.40292 5.11648 2.4293 3.94141C2.08772 4.51724 1.90708 5.17424 1.90625 5.84376C1.90625 7.15626 2.59102 8.31641 3.625 8.9961C3.01239 8.98156 2.41234 8.81942 1.87578 8.52344V8.57032C1.87578 10.4063 3.20391 11.9336 4.96172 12.2813C4.63117 12.3694 4.29053 12.414 3.94844 12.4141C3.70569 12.4145 3.4635 12.3909 3.22539 12.3438C3.71406 13.8477 5.13633 14.9414 6.82109 14.9727C5.4521 16.0277 3.77134 16.598 2.04297 16.5938C1.73618 16.5933 1.42967 16.575 1.125 16.5391C2.88327 17.6618 4.92713 18.2557 7.01328 18.25C14.0977 18.25 17.968 12.4805 17.968 7.47657C17.968 7.31251 17.9637 7.14844 17.9559 6.98829C18.7071 6.45394 19.357 5.78989 19.875 5.02735Z" fill="white"/>
</svg>
