<svg width="25" height="25" viewBox="0 0 21 21" fill="none" xmlns="http://www.w3.org/2000/svg">
<path d="M14.1457 3.4582C15.1118 3.46109 16.0375 3.84616 16.7207 4.52931C17.4038 5.21246 17.7889 6.13818 17.7918 7.1043V14.3957C17.7889 15.3618 17.4038 16.2875 16.7207 16.9707C16.0375 17.6538 15.1118 18.0389 14.1457 18.0418H6.8543C5.88818 18.0389 4.96246 17.6538 4.27931 16.9707C3.59616 16.2875 3.21109 15.3618 3.2082 14.3957V7.1043C3.21109 6.13818 3.59616 5.21246 4.27931 4.52931C4.96246 3.84616 5.88818 3.46109 6.8543 3.4582H14.1457ZM14.1457 2H6.8543C4.04687 2 1.75 4.29687 1.75 7.1043V14.3957C1.75 17.2031 4.04687 19.5 6.8543 19.5H14.1457C16.9531 19.5 19.25 17.2031 19.25 14.3957V7.1043C19.25 4.29687 16.9531 2 14.1457 2Z" fill="currentcolor"/>
<path d="M15.2395 7.10429C15.0231 7.10429 14.8117 7.04015 14.6318 6.91996C14.4519 6.79978 14.3117 6.62896 14.229 6.4291C14.1462 6.22925 14.1245 6.00933 14.1667 5.79716C14.2089 5.585 14.3131 5.39011 14.4661 5.23715C14.619 5.08418 14.8139 4.98001 15.0261 4.93781C15.2382 4.89561 15.4582 4.91727 15.658 5.00005C15.8579 5.08283 16.0287 5.22302 16.1489 5.40289C16.2691 5.58276 16.3332 5.79422 16.3332 6.01054C16.3335 6.15426 16.3054 6.29663 16.2506 6.42947C16.1957 6.56231 16.1152 6.68301 16.0135 6.78463C15.9119 6.88626 15.7912 6.96681 15.6584 7.02167C15.5255 7.07652 15.3832 7.1046 15.2395 7.10429ZM10.5 7.8332C11.0769 7.8332 11.6408 8.00427 12.1205 8.32477C12.6002 8.64527 12.974 9.10081 13.1948 9.63379C13.4155 10.1668 13.4733 10.7532 13.3608 11.319C13.2482 11.8848 12.9704 12.4046 12.5625 12.8125C12.1546 13.2204 11.6348 13.4982 11.069 13.6107C10.5032 13.7233 9.91677 13.6655 9.38379 13.4448C8.85082 13.224 8.39528 12.8501 8.07477 12.3705C7.75427 11.8908 7.58321 11.3269 7.58321 10.75C7.58403 9.97667 7.8916 9.23525 8.43843 8.68842C8.98526 8.1416 9.72667 7.83403 10.5 7.8332ZM10.5 6.375C9.63471 6.375 8.78885 6.63159 8.06938 7.11232C7.34992 7.59305 6.78916 8.27633 6.45803 9.07576C6.1269 9.87518 6.04026 10.7549 6.20907 11.6035C6.37788 12.4522 6.79456 13.2317 7.40641 13.8436C8.01826 14.4554 8.79782 14.8721 9.64648 15.0409C10.4951 15.2097 11.3748 15.1231 12.1742 14.792C12.9737 14.4608 13.657 13.9001 14.1377 13.1806C14.6184 12.4612 14.875 11.6153 14.875 10.75C14.875 9.58967 14.4141 8.47688 13.5936 7.65641C12.7731 6.83593 11.6603 6.375 10.5 6.375Z" fill="currentcolor"/>
</svg>
