<svg width="25" height="24" viewBox="0 0 21 20" fill="none" xmlns="http://www.w3.org/2000/svg">
<path d="M10.5 1.25C5.66797 1.25 1.75 5.26953 1.75 10.2227C1.75 14.1875 4.25781 17.5469 7.73438 18.7344C7.78314 18.745 7.83291 18.7502 7.88281 18.75C8.20703 18.75 8.33203 18.5117 8.33203 18.3047C8.33203 18.0898 8.32422 17.5273 8.32031 16.7773C8.03088 16.8452 7.73478 16.8806 7.4375 16.8828C5.75391 16.8828 5.37109 15.5742 5.37109 15.5742C4.97266 14.5391 4.39844 14.2617 4.39844 14.2617C3.63672 13.7266 4.39453 13.7109 4.45312 13.7109H4.45703C5.33594 13.7891 5.79688 14.6406 5.79688 14.6406C6.23438 15.4062 6.82031 15.6211 7.34375 15.6211C7.68986 15.6142 8.03061 15.5343 8.34375 15.3867C8.42188 14.8086 8.64844 14.4141 8.89844 14.1875C6.95703 13.9609 4.91406 13.1914 4.91406 9.75391C4.91406 8.77344 5.25391 7.97266 5.8125 7.34766C5.72266 7.12109 5.42188 6.20703 5.89844 4.97266C5.96236 4.95736 6.02806 4.95079 6.09375 4.95312C6.41016 4.95312 7.125 5.07422 8.30469 5.89453C9.7381 5.49348 11.2541 5.49348 12.6875 5.89453C13.8672 5.07422 14.582 4.95312 14.8984 4.95312C14.9641 4.95079 15.0298 4.95736 15.0938 4.97266C15.5703 6.20703 15.2695 7.12109 15.1797 7.34766C15.7383 7.97656 16.0781 8.77734 16.0781 9.75391C16.0781 13.1992 14.0312 13.957 12.082 14.1797C12.3945 14.457 12.6758 15.0039 12.6758 15.8398C12.6758 17.0391 12.6641 18.0078 12.6641 18.3008C12.6641 18.5117 12.7852 18.75 13.1094 18.75C13.1619 18.7502 13.2142 18.745 13.2656 18.7344C16.7461 17.5469 19.25 14.1836 19.25 10.2227C19.25 5.26953 15.332 1.25 10.5 1.25Z" fill="currentcolor"/>
</svg>
