<svg width="25" height="25" viewBox="0 0 21 21" fill="none" xmlns="http://www.w3.org/2000/svg">
<path d="M17.0625 3.875H3.9375C3.35753 3.87562 2.80149 4.10629 2.39139 4.51639C1.98129 4.92649 1.75062 5.48253 1.75 6.0625V15.4375C1.75062 16.0175 1.98129 16.5735 2.39139 16.9836C2.80149 17.3937 3.35753 17.6244 3.9375 17.625H17.0625C17.6425 17.6244 18.1985 17.3937 18.6086 16.9836C19.0187 16.5735 19.2494 16.0175 19.25 15.4375V6.0625C19.2494 5.48253 19.0187 4.92649 18.6086 4.51639C18.1985 4.10629 17.6425 3.87562 17.0625 3.875ZM16.5086 7.49336L10.8836 11.8684C10.7739 11.9536 10.6389 11.9999 10.5 11.9999C10.3611 11.9999 10.2261 11.9536 10.1164 11.8684L4.49141 7.49336C4.42532 7.44345 4.36981 7.38091 4.3281 7.30936C4.28639 7.23781 4.25932 7.15869 4.24846 7.07659C4.23759 6.99449 4.24315 6.91104 4.26482 6.83111C4.28648 6.75118 4.32381 6.67635 4.37465 6.61097C4.42548 6.54559 4.4888 6.49096 4.56093 6.45027C4.63306 6.40957 4.71255 6.38362 4.7948 6.37391C4.87704 6.3642 4.9604 6.37094 5.04002 6.39372C5.11964 6.41651 5.19394 6.45489 5.25859 6.50664L10.5 10.5832L15.7414 6.50664C15.8725 6.40766 16.0372 6.36425 16.2 6.3858C16.3629 6.40734 16.5107 6.49211 16.6115 6.62177C16.7123 6.75142 16.758 6.91555 16.7387 7.07866C16.7195 7.24176 16.6368 7.39073 16.5086 7.49336Z" fill="currentcolor"/>
</svg>
