<svg width="21" height="20" viewBox="0 0 21 20" fill="none" xmlns="http://www.w3.org/2000/svg">
<path d="M13.7422 3.86722C13.7422 3.25783 13.5704 2.6608 13.2466 2.14456C12.9228 1.62833 12.46 1.21381 11.9114 0.948524C11.3628 0.683242 10.7505 0.577941 10.1448 0.644698C9.53911 0.711454 8.96447 0.947565 8.4868 1.32596C8.00913 1.70435 7.64777 2.20969 7.44415 2.78405C7.24054 3.35841 7.20292 3.97853 7.3356 4.57329C7.46828 5.16806 7.76589 5.71339 8.19431 6.14675C8.62273 6.58012 9.16461 6.88397 9.75781 7.02347V18.125L10.5 19.375L11.2422 18.125V7.02347C11.9527 6.85438 12.5857 6.45112 13.0392 5.87859C13.4926 5.30606 13.7403 4.59758 13.7422 3.86722ZM11.4375 3.63284C11.2753 3.63284 11.1167 3.58473 10.9818 3.4946C10.8469 3.40446 10.7417 3.27634 10.6796 3.12645C10.6175 2.97656 10.6013 2.81162 10.6329 2.6525C10.6646 2.49337 10.7427 2.3472 10.8575 2.23248C10.9722 2.11776 11.1183 2.03963 11.2775 2.00798C11.4366 1.97633 11.6015 1.99257 11.7514 2.05466C11.9013 2.11675 12.0294 2.22189 12.1196 2.35679C12.2097 2.49169 12.2578 2.65029 12.2578 2.81253C12.2578 3.03009 12.1714 3.23874 12.0175 3.39258C11.8637 3.54642 11.6551 3.63284 11.4375 3.63284Z" fill="currentcolor"/>
</svg>
