<svg width="28" height="26" viewBox="0 0 28 26" fill="none" xmlns="http://www.w3.org/2000/svg">
<path d="M-0.0625 0.578125V25.4219C-0.0625 25.6084 0.0115791 25.7872 0.143441 25.9191C0.275302 26.0509 0.454145 26.125 0.640625 26.125H27.3594C27.5459 26.125 27.7247 26.0509 27.8566 25.9191C27.9884 25.7872 28.0625 25.6084 28.0625 25.4219V0.578125C28.0625 0.391645 27.9884 0.212802 27.8566 0.0809405C27.7247 -0.0509211 27.5459 -0.125 27.3594 -0.125H0.640625C0.454145 -0.125 0.275302 -0.0509211 0.143441 0.0809405C0.0115791 0.212802 -0.0625 0.391645 -0.0625 0.578125ZM3.30723 11.916L7.81191 8.3125L3.30723 4.70898L4.4791 3.24414L10.8131 8.3125L4.47852 13.3803L3.30723 11.916ZM14.9375 13H9.3125V11.125H14.9375V13Z" fill="#4ADE80"/>
</svg>
