<svg xmlns="http://www.w3.org/2000/svg" xmlns:xlink="http://www.w3.org/1999/xlink" width="75px" zoomAndPan="magnify" viewBox="0 0 30 30.000001" height="75px" preserveAspectRatio="xMidYMid meet" version="1.0">
    <defs>
        <clipPath id="43fe3ce533">
            <path d="M 9.628906 9.160156 L 20.515625 9.160156 L 20.515625 20.046875 L 9.628906 20.046875 Z M 9.628906 9.160156 " clip-rule="nonzero"/>
        </clipPath>
        </defs>
    
    <g id="logoColor" clip-path="url(#43fe3ce533)"><path d="M 20.28125 16.4375 C 20.167969 16.4375 20.078125 16.347656 20.078125 16.234375 L 20.078125 9.886719 L 16.574219 13.398438 C 16.496094 13.480469 16.363281 13.480469 16.285156 13.398438 C 16.203125 13.316406 16.203125 13.1875 16.285156 13.105469 L 20.136719 9.238281 C 20.195312 9.179688 20.285156 9.164062 20.363281 9.195312 C 20.4375 9.226562 20.488281 9.304688 20.488281 9.386719 L 20.488281 16.234375 C 20.488281 16.347656 20.398438 16.4375 20.28125 16.4375 Z M 9.863281 20.046875 C 9.75 20.046875 9.65625 19.953125 9.65625 19.839844 L 9.65625 12.625 C 9.65625 12.542969 9.707031 12.464844 9.785156 12.433594 C 9.863281 12.402344 9.949219 12.421875 10.007812 12.480469 L 13.605469 16.085938 C 13.683594 16.167969 13.683594 16.296875 13.605469 16.378906 C 13.523438 16.460938 13.394531 16.460938 13.3125 16.378906 L 10.070312 13.125 L 10.070312 19.839844 C 10.070312 19.953125 9.976562 20.046875 9.863281 20.046875 Z M 20.28125 20.046875 C 20.230469 20.046875 20.175781 20.027344 20.136719 19.984375 L 9.71875 9.53125 C 9.636719 9.453125 9.636719 9.320312 9.71875 9.238281 C 9.796875 9.160156 9.929688 9.160156 10.007812 9.238281 L 20.429688 19.691406 C 20.507812 19.773438 20.507812 19.90625 20.429688 19.984375 C 20.390625 20.027344 20.335938 20.046875 20.28125 20.046875 " fill-opacity="1" fill-rule="nonzero"/></g>

    <style>
        @media (prefers-color-scheme: light) {
            #logoColor {
                fill: #000
            }
        }
        
        @media (prefers-color-scheme: dark) {
            #logoColor {
                fill: #fff
            }
        }
    </style>

</svg>