<svg width="23" height="17" viewBox="0 0 23 17" fill="none" xmlns="http://www.w3.org/2000/svg">
<style>
@media (prefers-color-scheme: dark) {
    .logoDark {
        fill: black;
    }

    .logoLight {
        fill: white;
    }
}
</style>
<rect class="logoDark" width="17" height="17" rx="8.5" fill="black"/>
<rect class="logoDark" width="17" height="17" rx="8.5" fill="black"/>
<ellipse class="logoLight" cx="9.5" cy="8.5" rx="8.5" ry="5.5" fill="black"/>
<path clas="logoDark" d="M5.112 10L5.604 7.2H6.104L6.728 9.064L7.996 7.2H8.496L8.004 10H7.58L7.944 7.932L6.796 9.6H6.468L5.9 7.936L5.536 10H5.112ZM9.59284 10L11.1168 7.2H11.5848L12.1128 10H11.6728L11.5488 9.316H10.4048L10.0448 10H9.59284ZM10.5808 8.988H11.4928L11.2648 7.688L10.5808 8.988ZM13.7073 10L14.1993 7.2H15.1553C15.35 7.2 15.5086 7.23333 15.6313 7.3C15.7566 7.36667 15.8486 7.45467 15.9073 7.564C15.9686 7.67333 15.9993 7.792 15.9993 7.92C15.9993 8.14667 15.934 8.33733 15.8033 8.492C15.6753 8.64667 15.502 8.75467 15.2833 8.816L15.6673 10H15.2033L14.8593 8.872H14.3313L14.1313 10H13.7073ZM14.3873 8.552H14.9033C15.1006 8.552 15.2593 8.50133 15.3793 8.4C15.4993 8.296 15.5593 8.15067 15.5593 7.964C15.5593 7.84667 15.5206 7.74933 15.4433 7.672C15.3686 7.59467 15.246 7.556 15.0753 7.556H14.5633L14.3873 8.552ZM17.3448 10L17.8368 7.2H18.2608L17.7688 10H17.3448ZM20.8569 10.048C20.6222 10.048 20.4156 9.996 20.2369 9.892C20.0582 9.788 19.9182 9.64667 19.8169 9.468C19.7182 9.28667 19.6689 9.08 19.6689 8.848C19.6689 8.61067 19.7116 8.39067 19.7969 8.188C19.8849 7.98267 20.0049 7.80267 20.1569 7.648C20.3116 7.49067 20.4902 7.36933 20.6929 7.284C20.8956 7.196 21.1129 7.152 21.3449 7.152C21.5769 7.152 21.7822 7.204 21.9609 7.308C22.1396 7.40933 22.2796 7.55067 22.3809 7.732C22.4822 7.91067 22.5329 8.116 22.5329 8.348C22.5329 8.58533 22.4889 8.80667 22.4009 9.012C22.3129 9.21733 22.1916 9.39733 22.0369 9.552C21.8849 9.70667 21.7076 9.828 21.5049 9.916C21.3022 10.004 21.0862 10.048 20.8569 10.048ZM20.9129 9.668C21.0729 9.668 21.2236 9.636 21.3649 9.572C21.5089 9.50533 21.6356 9.41333 21.7449 9.296C21.8542 9.17867 21.9396 9.04133 22.0009 8.884C22.0622 8.72667 22.0929 8.55867 22.0929 8.38C22.0929 8.11867 22.0196 7.912 21.8729 7.76C21.7289 7.608 21.5342 7.532 21.2889 7.532C21.1262 7.532 20.9729 7.56533 20.8289 7.632C20.6876 7.696 20.5622 7.78667 20.4529 7.904C20.3462 8.02133 20.2622 8.15867 20.2009 8.316C20.1396 8.47067 20.1089 8.63733 20.1089 8.816C20.1089 8.98933 20.1422 9.14 20.2089 9.268C20.2756 9.396 20.3689 9.49467 20.4889 9.564C20.6089 9.63333 20.7502 9.668 20.9129 9.668Z" fill="black"/>
</svg>
