<svg width="1440" height="1024" viewBox="0 0 1440 1024" fill="none" xmlns="http://www.w3.org/2000/svg">
<g opacity="0.5">
<rect x="63" width="2" height="1024" fill="#2E2E2E"/>
<rect x="145" width="2" height="1024" fill="#2E2E2E"/>
<rect x="227" width="2" height="1024" fill="#2E2E2E"/>
<rect x="309" width="2" height="1024" fill="#2E2E2E"/>
<rect x="391" width="2" height="1024" fill="#2E2E2E"/>
<rect x="473" width="2" height="1024" fill="#2E2E2E"/>
<rect x="555" width="2" height="1024" fill="#2E2E2E"/>
<rect x="637" width="2" height="1024" fill="#2E2E2E"/>
<rect x="719" width="2" height="1024" fill="#2E2E2E"/>
<rect x="801" width="2" height="1024" fill="#2E2E2E"/>
<rect x="883" width="2" height="1024" fill="#2E2E2E"/>
<rect x="965" width="2" height="1024" fill="#2E2E2E"/>
<rect x="1047" width="2" height="1024" fill="#2E2E2E"/>
<rect x="1129" width="2" height="1024" fill="#2E2E2E"/>
<rect x="1211" width="2" height="1024" fill="#2E2E2E"/>
<rect x="1293" width="2" height="1024" fill="#2E2E2E"/>
<rect x="1375" width="2" height="1024" fill="#2E2E2E"/>
<g clip-path="url(#clip0_402_3)">
<rect y="895" width="2" height="1440" transform="rotate(-90 0 895)" fill="#2E2E2E"/>
<rect y="813" width="2" height="1440" transform="rotate(-90 0 813)" fill="#2E2E2E"/>
<rect y="731" width="2" height="1440" transform="rotate(-90 0 731)" fill="#2E2E2E"/>
<rect y="649" width="2" height="1440" transform="rotate(-90 0 649)" fill="#2E2E2E"/>
<rect y="567" width="2" height="1440" transform="rotate(-90 0 567)" fill="#2E2E2E"/>
<rect y="485" width="2" height="1440" transform="rotate(-90 0 485)" fill="#2E2E2E"/>
<rect y="403" width="2" height="1440" transform="rotate(-90 0 403)" fill="#2E2E2E"/>
<rect y="321" width="2" height="1440" transform="rotate(-90 0 321)" fill="#2E2E2E"/>
<rect y="239" width="2" height="1440" transform="rotate(-90 0 239)" fill="#2E2E2E"/>
<rect y="157" width="2" height="1440" transform="rotate(-90 0 157)" fill="#2E2E2E"/>
<rect y="75" width="2" height="1440" transform="rotate(-90 0 75)" fill="#2E2E2E"/>
</g>
<rect width="1440" height="1024" fill="url(#paint0_radial_402_3)"/>
</g>
<defs>
<radialGradient id="paint0_radial_402_3" cx="0" cy="0" r="1" gradientUnits="userSpaceOnUse" gradientTransform="translate(720 449.586) rotate(90) scale(574.414 6715.33)">
<stop stop-opacity="0"/>
<stop offset="1"/>
</radialGradient>
<clipPath id="clip0_402_3">
<rect width="895" height="1440" fill="white" transform="matrix(0 -1 1 0 0 895)"/>
</clipPath>
</defs>
</svg>
