<svg width="1440" height="981" viewBox="0 0 1440 981" fill="none" xmlns="http://www.w3.org/2000/svg">
<rect x="63" width="2" height="981" fill="white" fill-opacity="0.05"/>
<rect x="145" width="2" height="981" fill="white" fill-opacity="0.05"/>
<rect x="227" width="2" height="981" fill="white" fill-opacity="0.05"/>
<rect x="309" width="2" height="981" fill="white" fill-opacity="0.05"/>
<rect x="391" width="2" height="981" fill="white" fill-opacity="0.05"/>
<rect x="473" width="2" height="981" fill="white" fill-opacity="0.05"/>
<rect x="555" width="2" height="981" fill="white" fill-opacity="0.05"/>
<rect x="637" width="2" height="981" fill="white" fill-opacity="0.05"/>
<rect x="719" width="2" height="981" fill="white" fill-opacity="0.05"/>
<rect x="801" width="2" height="981" fill="white" fill-opacity="0.05"/>
<rect x="883" width="2" height="981" fill="white" fill-opacity="0.05"/>
<rect x="965" width="2" height="981" fill="white" fill-opacity="0.05"/>
<rect x="1047" width="2" height="981" fill="white" fill-opacity="0.05"/>
<rect x="1129" width="2" height="981" fill="white" fill-opacity="0.05"/>
<rect x="1211" width="2" height="981" fill="white" fill-opacity="0.05"/>
<rect x="1293" width="2" height="981" fill="white" fill-opacity="0.05"/>
<rect x="1375" width="2" height="981" fill="white" fill-opacity="0.05"/>
<g clip-path="url(#clip0_402_3)">
<rect y="895" width="2" height="1440" transform="rotate(-90 0 895)" fill="white" fill-opacity="0.05"/>
<rect y="813" width="2" height="1440" transform="rotate(-90 0 813)" fill="white" fill-opacity="0.05"/>
<rect y="731" width="2" height="1440" transform="rotate(-90 0 731)" fill="white" fill-opacity="0.05"/>
<rect y="649" width="2" height="1440" transform="rotate(-90 0 649)" fill="white" fill-opacity="0.05"/>
<rect y="567" width="2" height="1440" transform="rotate(-90 0 567)" fill="white" fill-opacity="0.05"/>
<rect y="485" width="2" height="1440" transform="rotate(-90 0 485)" fill="white" fill-opacity="0.05"/>
<rect y="403" width="2" height="1440" transform="rotate(-90 0 403)" fill="white" fill-opacity="0.05"/>
<rect y="321" width="2" height="1440" transform="rotate(-90 0 321)" fill="white" fill-opacity="0.05"/>
<rect y="239" width="2" height="1440" transform="rotate(-90 0 239)" fill="white" fill-opacity="0.05"/>
<rect y="157" width="2" height="1440" transform="rotate(-90 0 157)" fill="white" fill-opacity="0.05"/>
<rect y="75" width="2" height="1440" transform="rotate(-90 0 75)" fill="white" fill-opacity="0.05"/>
</g>
<defs>
<clipPath id="clip0_402_3">
<rect width="895" height="1440" fill="white" transform="matrix(0 -1 1 0 0 895)"/>
</clipPath>
</defs>
</svg>
