<svg width="117" height="87" viewBox="0 0 117 87" fill="none" xmlns="http://www.w3.org/2000/svg">
<rect width="88.1013" height="87" rx="43.5" fill="white"/>
<ellipse cx="50.2177" cy="43.5" rx="46.6937" ry="26.1" fill="black"/>
<path d="M37.504 50L39.718 37.4H41.968L44.776 45.788L50.482 37.4H52.732L50.518 50H48.61L50.248 40.694L45.082 48.2H43.606L41.05 40.712L39.412 50H37.504ZM57.6678 50L64.5258 37.4H66.6318L69.0078 50H67.0278L66.4698 46.922H61.3218L59.7018 50H57.6678ZM62.1138 45.446H66.2178L65.1918 39.596L62.1138 45.446ZM76.1829 50L78.3969 37.4H82.6989C83.5749 37.4 84.2889 37.55 84.8409 37.85C85.4049 38.15 85.8189 38.546 86.0829 39.038C86.3589 39.53 86.4969 40.064 86.4969 40.64C86.4969 41.66 86.2029 42.518 85.6149 43.214C85.0389 43.91 84.2589 44.396 83.2749 44.672L85.0029 50H82.9149L81.3669 44.924H78.9909L78.0909 50H76.1829ZM79.2429 43.484H81.5649C82.4529 43.484 83.1669 43.256 83.7069 42.8C84.2469 42.332 84.5169 41.678 84.5169 40.838C84.5169 40.31 84.3429 39.872 83.9949 39.524C83.6589 39.176 83.1069 39.002 82.3389 39.002H80.0349L79.2429 43.484ZM92.5517 50L94.7657 37.4H96.6737L94.4597 50H92.5517ZM108.356 50.216C107.3 50.216 106.37 49.982 105.566 49.514C104.762 49.046 104.132 48.41 103.676 47.606C103.232 46.79 103.01 45.86 103.01 44.816C103.01 43.748 103.202 42.758 103.586 41.846C103.982 40.922 104.522 40.112 105.206 39.416C105.902 38.708 106.706 38.162 107.618 37.778C108.53 37.382 109.508 37.184 110.552 37.184C111.596 37.184 112.52 37.418 113.324 37.886C114.128 38.342 114.758 38.978 115.214 39.794C115.67 40.598 115.898 41.522 115.898 42.566C115.898 43.634 115.7 44.63 115.304 45.554C114.908 46.478 114.362 47.288 113.666 47.984C112.982 48.68 112.184 49.226 111.272 49.622C110.36 50.018 109.388 50.216 108.356 50.216ZM108.608 48.506C109.328 48.506 110.006 48.362 110.642 48.074C111.29 47.774 111.86 47.36 112.352 46.832C112.844 46.304 113.228 45.686 113.504 44.978C113.78 44.27 113.918 43.514 113.918 42.71C113.918 41.534 113.588 40.604 112.928 39.92C112.28 39.236 111.404 38.894 110.3 38.894C109.568 38.894 108.878 39.044 108.23 39.344C107.594 39.632 107.03 40.04 106.538 40.568C106.058 41.096 105.68 41.714 105.404 42.422C105.128 43.118 104.99 43.868 104.99 44.672C104.99 45.452 105.14 46.13 105.44 46.706C105.74 47.282 106.16 47.726 106.7 48.038C107.24 48.35 107.876 48.506 108.608 48.506Z" fill="white"/>
</svg>
