<svg width="1440" height="3699" viewBox="0 0 1440 3699" fill="none" xmlns="http://www.w3.org/2000/svg">
<g opacity="0.05">
<rect x="63" width="2" height="981" fill="white"/>
<rect x="145" width="2" height="981" fill="white"/>
<rect x="227" width="2" height="981" fill="white"/>
<rect x="309" width="2" height="981" fill="white"/>
<rect x="391" width="2" height="981" fill="white"/>
<rect x="473" width="2" height="981" fill="white"/>
<rect x="555" width="2" height="981" fill="white"/>
<rect x="637" width="2" height="981" fill="white"/>
<rect x="719" width="2" height="981" fill="white"/>
<rect x="801" width="2" height="981" fill="white"/>
<rect x="883" width="2" height="981" fill="white"/>
<rect x="965" width="2" height="981" fill="white"/>
<rect x="1047" width="2" height="981" fill="white"/>
<rect x="1129" width="2" height="981" fill="white"/>
<rect x="1211" width="2" height="981" fill="white"/>
<rect x="1293" width="2" height="981" fill="white"/>
<rect x="1375" width="2" height="981" fill="white"/>
<g clip-path="url(#clip0_407_59)">
<rect y="895" width="2" height="1440" transform="rotate(-90 0 895)" fill="white"/>
<rect y="813" width="2" height="1440" transform="rotate(-90 0 813)" fill="white"/>
<rect y="731" width="2" height="1440" transform="rotate(-90 0 731)" fill="white"/>
<rect y="649" width="2" height="1440" transform="rotate(-90 0 649)" fill="white"/>
<rect y="567" width="2" height="1440" transform="rotate(-90 0 567)" fill="white"/>
<rect y="485" width="2" height="1440" transform="rotate(-90 0 485)" fill="white"/>
<rect y="403" width="2" height="1440" transform="rotate(-90 0 403)" fill="white"/>
<rect y="321" width="2" height="1440" transform="rotate(-90 0 321)" fill="white"/>
<rect y="239" width="2" height="1440" transform="rotate(-90 0 239)" fill="white"/>
<rect y="157" width="2" height="1440" transform="rotate(-90 0 157)" fill="white"/>
<rect y="75" width="2" height="1440" transform="rotate(-90 0 75)" fill="white"/>
</g>
<rect x="63" y="906" width="2" height="981" fill="white"/>
<rect x="145" y="906" width="2" height="981" fill="white"/>
<rect x="227" y="906" width="2" height="981" fill="white"/>
<rect x="309" y="906" width="2" height="981" fill="white"/>
<rect x="391" y="906" width="2" height="981" fill="white"/>
<rect x="473" y="906" width="2" height="981" fill="white"/>
<rect x="555" y="906" width="2" height="981" fill="white"/>
<rect x="637" y="906" width="2" height="981" fill="white"/>
<rect x="719" y="906" width="2" height="981" fill="white"/>
<rect x="801" y="906" width="2" height="981" fill="white"/>
<rect x="883" y="906" width="2" height="981" fill="white"/>
<rect x="965" y="906" width="2" height="981" fill="white"/>
<rect x="1047" y="906" width="2" height="981" fill="white"/>
<rect x="1129" y="906" width="2" height="981" fill="white"/>
<rect x="1211" y="906" width="2" height="981" fill="white"/>
<rect x="1293" y="906" width="2" height="981" fill="white"/>
<rect x="1375" y="906" width="2" height="981" fill="white"/>
<g clip-path="url(#clip1_407_59)">
<rect y="1801" width="2" height="1440" transform="rotate(-90 0 1801)" fill="white"/>
<rect y="1719" width="2" height="1440" transform="rotate(-90 0 1719)" fill="white"/>
<rect y="1637" width="2" height="1440" transform="rotate(-90 0 1637)" fill="white"/>
<rect y="1555" width="2" height="1440" transform="rotate(-90 0 1555)" fill="white"/>
<rect y="1473" width="2" height="1440" transform="rotate(-90 0 1473)" fill="white"/>
<rect y="1391" width="2" height="1440" transform="rotate(-90 0 1391)" fill="white"/>
<rect y="1309" width="2" height="1440" transform="rotate(-90 0 1309)" fill="white"/>
<rect y="1227" width="2" height="1440" transform="rotate(-90 0 1227)" fill="white"/>
<rect y="1145" width="2" height="1440" transform="rotate(-90 0 1145)" fill="white"/>
<rect y="1063" width="2" height="1440" transform="rotate(-90 0 1063)" fill="white"/>
<rect y="981" width="2" height="1440" transform="rotate(-90 0 981)" fill="white"/>
</g>
<rect x="63" y="1812" width="2" height="981" fill="white"/>
<rect x="145" y="1812" width="2" height="981" fill="white"/>
<rect x="227" y="1812" width="2" height="981" fill="white"/>
<rect x="309" y="1812" width="2" height="981" fill="white"/>
<rect x="391" y="1812" width="2" height="981" fill="white"/>
<rect x="473" y="1812" width="2" height="981" fill="white"/>
<rect x="555" y="1812" width="2" height="981" fill="white"/>
<rect x="637" y="1812" width="2" height="981" fill="white"/>
<rect x="719" y="1812" width="2" height="981" fill="white"/>
<rect x="801" y="1812" width="2" height="981" fill="white"/>
<rect x="883" y="1812" width="2" height="981" fill="white"/>
<rect x="965" y="1812" width="2" height="981" fill="white"/>
<rect x="1047" y="1812" width="2" height="981" fill="white"/>
<rect x="1129" y="1812" width="2" height="981" fill="white"/>
<rect x="1211" y="1812" width="2" height="981" fill="white"/>
<rect x="1293" y="1812" width="2" height="981" fill="white"/>
<rect x="1375" y="1812" width="2" height="981" fill="white"/>
<g clip-path="url(#clip2_407_59)">
<rect y="2707" width="2" height="1440" transform="rotate(-90 0 2707)" fill="white"/>
<rect y="2625" width="2" height="1440" transform="rotate(-90 0 2625)" fill="white"/>
<rect y="2543" width="2" height="1440" transform="rotate(-90 0 2543)" fill="white"/>
<rect y="2461" width="2" height="1440" transform="rotate(-90 0 2461)" fill="white"/>
<rect y="2379" width="2" height="1440" transform="rotate(-90 0 2379)" fill="white"/>
<rect y="2297" width="2" height="1440" transform="rotate(-90 0 2297)" fill="white"/>
<rect y="2215" width="2" height="1440" transform="rotate(-90 0 2215)" fill="white"/>
<rect y="2133" width="2" height="1440" transform="rotate(-90 0 2133)" fill="white"/>
<rect y="2051" width="2" height="1440" transform="rotate(-90 0 2051)" fill="white"/>
<rect y="1969" width="2" height="1440" transform="rotate(-90 0 1969)" fill="white"/>
<rect y="1887" width="2" height="1440" transform="rotate(-90 0 1887)" fill="white"/>
</g>
<rect x="63" y="2718" width="2" height="981" fill="white"/>
<rect x="145" y="2718" width="2" height="981" fill="white"/>
<rect x="227" y="2718" width="2" height="981" fill="white"/>
<rect x="309" y="2718" width="2" height="981" fill="white"/>
<rect x="391" y="2718" width="2" height="981" fill="white"/>
<rect x="473" y="2718" width="2" height="981" fill="white"/>
<rect x="555" y="2718" width="2" height="981" fill="white"/>
<rect x="637" y="2718" width="2" height="981" fill="white"/>
<rect x="719" y="2718" width="2" height="981" fill="white"/>
<rect x="801" y="2718" width="2" height="981" fill="white"/>
<rect x="883" y="2718" width="2" height="981" fill="white"/>
<rect x="965" y="2718" width="2" height="981" fill="white"/>
<rect x="1047" y="2718" width="2" height="981" fill="white"/>
<rect x="1129" y="2718" width="2" height="981" fill="white"/>
<rect x="1211" y="2718" width="2" height="981" fill="white"/>
<rect x="1293" y="2718" width="2" height="981" fill="white"/>
<rect x="1375" y="2718" width="2" height="981" fill="white"/>
<g clip-path="url(#clip3_407_59)">
<rect y="3613" width="2" height="1440" transform="rotate(-90 0 3613)" fill="white"/>
<rect y="3531" width="2" height="1440" transform="rotate(-90 0 3531)" fill="white"/>
<rect y="3449" width="2" height="1440" transform="rotate(-90 0 3449)" fill="white"/>
<rect y="3367" width="2" height="1440" transform="rotate(-90 0 3367)" fill="white"/>
<rect y="3285" width="2" height="1440" transform="rotate(-90 0 3285)" fill="white"/>
<rect y="3203" width="2" height="1440" transform="rotate(-90 0 3203)" fill="white"/>
<rect y="3121" width="2" height="1440" transform="rotate(-90 0 3121)" fill="white"/>
<rect y="3039" width="2" height="1440" transform="rotate(-90 0 3039)" fill="white"/>
<rect y="2957" width="2" height="1440" transform="rotate(-90 0 2957)" fill="white"/>
<rect y="2875" width="2" height="1440" transform="rotate(-90 0 2875)" fill="white"/>
<rect y="2793" width="2" height="1440" transform="rotate(-90 0 2793)" fill="white"/>
</g>
</g>
<defs>
<clipPath id="clip0_407_59">
<rect width="895" height="1440" fill="white" transform="matrix(0 -1 1 0 0 895)"/>
</clipPath>
<clipPath id="clip1_407_59">
<rect width="895" height="1440" fill="white" transform="matrix(0 -1 1 0 0 1801)"/>
</clipPath>
<clipPath id="clip2_407_59">
<rect width="895" height="1440" fill="white" transform="matrix(0 -1 1 0 0 2707)"/>
</clipPath>
<clipPath id="clip3_407_59">
<rect width="895" height="1440" fill="white" transform="matrix(0 -1 1 0 0 3613)"/>
</clipPath>
</defs>
</svg>
