<svg xmlns="http://www.w3.org/2000/svg" xmlns:xlink="http://www.w3.org/1999/xlink" width="500" zoomAndPan="magnify" viewBox="0 0 375 374.999991" height="500" preserveAspectRatio="xMidYMid meet" version="1.0"><defs><clipPath id="b417e966a2"><path d="M 118.128906 118.300781 L 256.878906 118.300781 L 256.878906 257.050781 L 118.128906 257.050781 Z M 118.128906 118.300781 " clip-rule="nonzero"/></clipPath></defs><g clip-path="url(#b417e966a2)"><path fill="#ffffff" d="M 253.949219 211.089844 C 252.496094 211.089844 251.320312 209.90625 251.320312 208.453125 L 251.320312 127.570312 L 206.675781 172.324219 C 205.644531 173.355469 203.980469 173.355469 202.953125 172.324219 C 201.929688 171.296875 201.929688 169.625 202.953125 168.597656 L 252.089844 119.335938 C 252.839844 118.582031 253.972656 118.359375 254.957031 118.765625 C 255.9375 119.175781 256.578125 120.136719 256.578125 121.203125 L 256.578125 208.453125 C 256.578125 209.90625 255.402344 211.089844 253.949219 211.089844 Z M 121.074219 257.050781 C 119.621094 257.050781 118.441406 255.871094 118.441406 254.414062 L 118.441406 162.488281 C 118.441406 161.421875 119.082031 160.460938 120.066406 160.050781 C 121.050781 159.644531 122.179688 159.867188 122.933594 160.621094 L 168.78125 206.585938 C 169.808594 207.617188 169.808594 209.285156 168.78125 210.316406 C 167.753906 211.347656 166.085938 211.347656 165.058594 210.316406 L 123.703125 168.851562 L 123.703125 254.414062 C 123.703125 255.871094 122.523438 257.050781 121.074219 257.050781 Z M 253.949219 257.050781 C 253.277344 257.050781 252.601562 256.792969 252.089844 256.28125 L 119.214844 123.066406 C 118.1875 122.039062 118.1875 120.367188 119.214844 119.335938 C 120.242188 118.308594 121.90625 118.308594 122.933594 119.335938 L 255.808594 252.550781 C 256.835938 253.582031 256.835938 255.25 255.808594 256.28125 C 255.292969 256.792969 254.621094 257.050781 253.949219 257.050781 " fill-opacity="1" fill-rule="nonzero"/></g></svg>